<?xml version="1.0" encoding="utf-8"?>
<svg id="a6896f88-91d8-4d59-ae46-7fd3a01d2680" data-name="Icon" viewBox="0 0 36 32" xmlns="http://www.w3.org/2000/svg">
  <path d="M 25.741 8 L 25.741 5 C 25.736 4.656 25.455 4.38 25.111 4.38 L 5.021 4.38 C 4.679 4.38 4.401 4.658 4.401 5 L 4.401 21 C 4.407 24.654 7.367 27.614 11.021 27.62 L 19.111 27.62 C 22.769 27.62 25.735 24.658 25.741 21 C 33.551 20.05 33.551 8.86 25.741 8 Z M 24.491 21 C 24.485 23.969 22.08 26.374 19.111 26.38 L 11.021 26.38 C 8.052 26.374 5.647 23.969 5.641 21 L 5.641 5.62 L 24.491 5.62 Z M 25.741 19.68 L 25.741 9.23 C 29.763 9.696 31.772 14.342 29.357 17.592 C 28.492 18.757 27.183 19.513 25.741 19.68 Z"/>
  <path d="M 12.986 19.265 L 10.176 19.265 L 10.176 18.585 L 11.056 18.435 L 11.056 12.275 L 10.176 12.125 L 10.176 11.445 L 11.056 11.445 L 12.466 11.445 L 14.986 17.375 L 15.016 17.375 L 17.456 11.445 L 19.816 11.445 L 19.816 12.125 L 18.946 12.275 L 18.946 18.435 L 19.816 18.585 L 19.816 19.265 L 17.006 19.265 L 17.006 18.585 L 17.936 18.435 L 17.936 16.175 L 17.936 12.885 L 17.906 12.885 L 15.366 18.985 L 14.656 18.985 L 12.036 12.895 L 12.006 12.905 L 12.046 16.175 L 12.046 18.435 L 12.986 18.585 L 12.986 19.265 Z" style="white-space: pre;"/>
</svg>